<svg width="200" height="200" viewBox="0 0 200 200" fill="none" xmlns="http://www.w3.org/2000/svg">
<rect width="200" height="200" fill="white"/>
<path d="M28.4196 150.652V124.348H46.1938V129.308H33.9059V145.692H46.4568V150.652H28.4196ZM31.05 139.642V134.832H44.3901V139.642H31.05ZM53.0617 150.652V129.383C53.0617 128.156 53.3373 127.041 53.8884 126.039C54.4395 125.037 55.1911 124.248 56.1431 123.671C57.1201 123.095 58.2599 122.807 59.5626 122.807C60.4394 122.807 61.2661 122.957 62.0427 123.258C62.8194 123.534 63.4832 123.922 64.0344 124.423L62.4561 128.331C62.1304 128.131 61.7922 127.968 61.4415 127.842C61.1158 127.692 60.8152 127.617 60.5396 127.617C60.0637 127.617 59.6628 127.705 59.3372 127.88C59.0365 128.03 58.8111 128.268 58.6608 128.594C58.5104 128.895 58.4353 129.283 58.4353 129.759V150.652H55.7673C55.1911 150.652 54.6775 150.652 54.2266 150.652C53.7757 150.652 53.3874 150.652 53.0617 150.652ZM50.0931 135.771V131.262H62.7191V135.771H50.0931ZM67.8297 150.652V129.383C67.8297 128.156 68.1053 127.041 68.6564 126.039C69.2076 125.037 69.9591 124.248 70.9111 123.671C71.8881 123.095 73.0279 122.807 74.3306 122.807C75.2074 122.807 76.0342 122.957 76.8108 123.258C77.5874 123.534 78.2512 123.922 78.8024 124.423L77.2241 128.331C76.8984 128.131 76.5602 127.968 76.2095 127.842C75.8838 127.692 75.5832 127.617 75.3077 127.617C74.8317 127.617 74.4308 127.705 74.1052 127.88C73.8045 128.03 73.5791 128.268 73.4288 128.594C73.2785 128.895 73.2033 129.283 73.2033 129.759V150.652H70.5353C69.9591 150.652 69.4455 150.652 68.9946 150.652C68.5437 150.652 68.1554 150.652 67.8297 150.652ZM64.8611 135.771V131.262H77.4872V135.771H64.8611ZM81.508 150.652V130.774H86.844V150.652H81.508ZM84.1384 126.678C83.1113 126.678 82.3096 126.427 81.7334 125.926C81.1572 125.425 80.8691 124.711 80.8691 123.784C80.8691 122.932 81.1572 122.243 81.7334 121.717C82.3347 121.166 83.1363 120.891 84.1384 120.891C85.1655 120.891 85.9672 121.154 86.5434 121.68C87.1196 122.181 87.4077 122.882 87.4077 123.784C87.4077 124.661 87.107 125.362 86.5058 125.888C85.9296 126.415 85.1405 126.678 84.1384 126.678ZM97.6484 150.652V129.421H89.9826V124.348H111.176V129.421H103.285V150.652H97.6484ZM120.769 151.028C118.615 151.028 116.736 150.589 115.132 149.713C113.529 148.836 112.276 147.633 111.375 146.105C110.473 144.577 110.022 142.823 110.022 140.844C110.022 139.316 110.272 137.913 110.773 136.636C111.274 135.358 111.976 134.256 112.878 133.329C113.78 132.377 114.844 131.65 116.072 131.149C117.324 130.623 118.677 130.36 120.13 130.36C121.483 130.36 122.736 130.611 123.888 131.112C125.04 131.588 126.03 132.277 126.857 133.178C127.708 134.055 128.36 135.095 128.811 136.297C129.262 137.5 129.462 138.815 129.412 140.243L129.374 141.897H113.404L112.539 138.627H124.978L124.376 139.304V138.477C124.326 137.801 124.101 137.187 123.7 136.636C123.324 136.085 122.836 135.659 122.234 135.358C121.633 135.057 120.957 134.907 120.205 134.907C119.103 134.907 118.164 135.12 117.387 135.546C116.635 135.972 116.059 136.598 115.658 137.425C115.258 138.251 115.057 139.254 115.057 140.431C115.057 141.633 115.308 142.673 115.809 143.55C116.335 144.427 117.061 145.116 117.988 145.617C118.94 146.093 120.055 146.331 121.333 146.331C122.209 146.331 123.011 146.193 123.738 145.917C124.464 145.642 125.241 145.166 126.067 144.489L128.623 148.059C127.896 148.711 127.095 149.262 126.218 149.713C125.341 150.139 124.439 150.464 123.512 150.69C122.585 150.915 121.671 151.028 120.769 151.028ZM141.998 151.028C140.094 151.028 138.391 150.577 136.887 149.675C135.384 148.773 134.194 147.546 133.318 145.992C132.466 144.439 132.04 142.673 132.04 140.694C132.04 138.74 132.466 136.986 133.318 135.433C134.194 133.855 135.384 132.615 136.887 131.713C138.391 130.811 140.094 130.36 141.998 130.36C143.777 130.36 145.405 130.686 146.883 131.337C148.361 131.989 149.514 132.89 150.34 134.043L147.409 137.575C147.058 137.099 146.62 136.673 146.094 136.297C145.568 135.897 144.992 135.583 144.365 135.358C143.764 135.133 143.138 135.02 142.486 135.02C141.459 135.02 140.545 135.27 139.743 135.771C138.967 136.247 138.353 136.911 137.902 137.763C137.451 138.615 137.226 139.592 137.226 140.694C137.226 141.771 137.451 142.736 137.902 143.588C138.378 144.414 139.017 145.091 139.818 145.617C140.62 146.118 141.522 146.368 142.524 146.368C143.175 146.368 143.789 146.281 144.365 146.105C144.942 145.905 145.48 145.617 145.981 145.241C146.507 144.865 146.983 144.414 147.409 143.888L150.303 147.42C149.451 148.498 148.273 149.374 146.77 150.051C145.267 150.702 143.676 151.028 141.998 151.028ZM153.722 150.652V122.845H158.983V134.832L157.931 135.283C158.206 134.381 158.695 133.567 159.396 132.84C160.123 132.089 160.987 131.488 161.989 131.037C162.991 130.586 164.043 130.36 165.146 130.36C166.649 130.36 167.901 130.661 168.903 131.262C169.93 131.863 170.694 132.778 171.196 134.005C171.722 135.208 171.985 136.698 171.985 138.477V150.652H166.649V138.89C166.649 137.988 166.523 137.237 166.273 136.636C166.022 136.034 165.634 135.596 165.108 135.32C164.607 135.02 163.981 134.895 163.229 134.945C162.628 134.945 162.064 135.045 161.538 135.245C161.037 135.421 160.599 135.684 160.223 136.034C159.872 136.385 159.584 136.786 159.359 137.237C159.158 137.688 159.058 138.176 159.058 138.702V150.652H156.428C155.851 150.652 155.338 150.652 154.887 150.652C154.436 150.652 154.048 150.652 153.722 150.652Z" fill="#3E3E3E"/>
<path d="M85.5737 107.391C85.5737 103.133 85.5737 94.2391 85.5737 92.736C85.5737 90.8571 85.196 89.7298 82.93 87.4752C80.664 85.2205 70.8447 76.9534 70.8447 65.3043C70.8447 53.6553 76.5097 45.0124 83.6853 39.7516C87.0843 37.8727 91.2386 40.1273 91.2386 43.5093C91.2386 46.8913 91.2386 57.413 91.2386 59.6677C91.2386 61.9224 91.994 63.0497 94.6376 63.0497C97.2813 63.0497 104.835 63.0497 106.723 63.0497C108.611 63.0497 109.744 61.5466 109.744 59.6677C109.744 57.7888 109.744 45.3882 109.744 43.5093C109.744 40.8789 111.633 39 115.409 39C119.772 39 130.516 49.8975 130.138 63.0497C130.138 74.6988 125.606 80.3354 117.297 87.4752C115.787 89.354 115.409 90.4814 115.409 92.736C115.409 94.5398 115.409 103.258 115.409 107.391" stroke="#C93C2C" stroke-width="4.88509" stroke-linecap="round"/>
<path d="M105.968 63.0498C105.968 65.9308 105.968 72.0684 105.968 73.5715C105.968 75.0746 106.538 75.7833 107.478 76.9535C108.989 78.8324 113.773 84.7196 116.542 88.2268" stroke="#C93C2C" stroke-width="3.75776"/>
</svg>
