<svg width="254" height="63" viewBox="0 0 254 63" fill="none" xmlns="http://www.w3.org/2000/svg">
<path d="M59.55 50V15H83.2V21.6H66.85V43.4H83.55V50H59.55ZM63.05 35.35V28.95H80.8V35.35H63.05ZM92.3383 50V21.7C92.3383 20.0667 92.7049 18.5833 93.4383 17.25C94.1716 15.9167 95.1716 14.8667 96.4383 14.1C97.7383 13.3333 99.2549 12.95 100.988 12.95C102.155 12.95 103.255 13.15 104.288 13.55C105.322 13.9167 106.205 14.4333 106.938 15.1L104.838 20.3C104.405 20.0333 103.955 19.8167 103.488 19.65C103.055 19.45 102.655 19.35 102.288 19.35C101.655 19.35 101.122 19.4667 100.688 19.7C100.288 19.9 99.9883 20.2167 99.7883 20.65C99.5883 21.05 99.4883 21.5667 99.4883 22.2V50H95.9383C95.1716 50 94.4883 50 93.8883 50C93.2883 50 92.7716 50 92.3383 50ZM88.3883 30.2V24.2H105.188V30.2H88.3883ZM111.988 50V21.7C111.988 20.0667 112.355 18.5833 113.088 17.25C113.822 15.9167 114.822 14.8667 116.088 14.1C117.388 13.3333 118.905 12.95 120.638 12.95C121.805 12.95 122.905 13.15 123.938 13.55C124.972 13.9167 125.855 14.4333 126.588 15.1L124.488 20.3C124.055 20.0333 123.605 19.8167 123.138 19.65C122.705 19.45 122.305 19.35 121.938 19.35C121.305 19.35 120.772 19.4667 120.338 19.7C119.938 19.9 119.638 20.2167 119.438 20.65C119.238 21.05 119.138 21.5667 119.138 22.2V50H115.588C114.822 50 114.138 50 113.538 50C112.938 50 112.422 50 111.988 50ZM108.038 30.2V24.2H124.838V30.2H108.038ZM130.188 50V23.55H137.288V50H130.188ZM133.688 18.1C132.322 18.1 131.255 17.7667 130.488 17.1C129.722 16.4333 129.338 15.4833 129.338 14.25C129.338 13.1167 129.722 12.2 130.488 11.5C131.288 10.7667 132.355 10.4 133.688 10.4C135.055 10.4 136.122 10.75 136.888 11.45C137.655 12.1167 138.038 13.05 138.038 14.25C138.038 15.4167 137.638 16.35 136.838 17.05C136.072 17.75 135.022 18.1 133.688 18.1ZM151.664 50V21.75H141.464V15H169.664V21.75H159.164V50H151.664ZM182.428 50.5C179.561 50.5 177.061 49.9167 174.928 48.75C172.795 47.5833 171.128 45.9833 169.928 43.95C168.728 41.9167 168.128 39.5833 168.128 36.95C168.128 34.9167 168.461 33.05 169.128 31.35C169.795 29.65 170.728 28.1833 171.928 26.95C173.128 25.6833 174.545 24.7167 176.178 24.05C177.845 23.35 179.645 23 181.578 23C183.378 23 185.045 23.3333 186.578 24C188.111 24.6333 189.428 25.55 190.528 26.75C191.661 27.9167 192.528 29.3 193.128 30.9C193.728 32.5 193.995 34.25 193.928 36.15L193.878 38.35H172.628L171.478 34H188.028L187.228 34.9V33.8C187.161 32.9 186.861 32.0833 186.328 31.35C185.828 30.6167 185.178 30.05 184.378 29.65C183.578 29.25 182.678 29.05 181.678 29.05C180.211 29.05 178.961 29.3333 177.928 29.9C176.928 30.4667 176.161 31.3 175.628 32.4C175.095 33.5 174.828 34.8333 174.828 36.4C174.828 38 175.161 39.3833 175.828 40.55C176.528 41.7167 177.495 42.6333 178.728 43.3C179.995 43.9333 181.478 44.25 183.178 44.25C184.345 44.25 185.411 44.0667 186.378 43.7C187.345 43.3333 188.378 42.7 189.478 41.8L192.878 46.55C191.911 47.4167 190.845 48.15 189.678 48.75C188.511 49.3167 187.311 49.75 186.078 50.05C184.845 50.35 183.628 50.5 182.428 50.5ZM210.675 50.5C208.142 50.5 205.875 49.9 203.875 48.7C201.875 47.5 200.292 45.8667 199.125 43.8C197.992 41.7333 197.425 39.3833 197.425 36.75C197.425 34.15 197.992 31.8167 199.125 29.75C200.292 27.65 201.875 26 203.875 24.8C205.875 23.6 208.142 23 210.675 23C213.042 23 215.208 23.4333 217.175 24.3C219.142 25.1667 220.675 26.3667 221.775 27.9L217.875 32.6C217.408 31.9667 216.825 31.4 216.125 30.9C215.425 30.3667 214.658 29.95 213.825 29.65C213.025 29.35 212.192 29.2 211.325 29.2C209.958 29.2 208.742 29.5333 207.675 30.2C206.642 30.8333 205.825 31.7167 205.225 32.85C204.625 33.9833 204.325 35.2833 204.325 36.75C204.325 38.1833 204.625 39.4667 205.225 40.6C205.858 41.7 206.708 42.6 207.775 43.3C208.842 43.9667 210.042 44.3 211.375 44.3C212.242 44.3 213.058 44.1833 213.825 43.95C214.592 43.6833 215.308 43.3 215.975 42.8C216.675 42.3 217.308 41.7 217.875 41L221.725 45.7C220.592 47.1333 219.025 48.3 217.025 49.2C215.025 50.0667 212.908 50.5 210.675 50.5ZM226.275 50V13H233.275V28.95L231.875 29.55C232.241 28.35 232.891 27.2667 233.825 26.3C234.791 25.3 235.941 24.5 237.275 23.9C238.608 23.3 240.008 23 241.475 23C243.475 23 245.141 23.4 246.475 24.2C247.841 25 248.858 26.2167 249.525 27.85C250.225 29.45 250.575 31.4333 250.575 33.8V50H243.475V34.35C243.475 33.15 243.308 32.15 242.975 31.35C242.641 30.55 242.125 29.9667 241.425 29.6C240.758 29.2 239.925 29.0333 238.925 29.1C238.125 29.1 237.375 29.2333 236.675 29.5C236.008 29.7333 235.425 30.0833 234.925 30.55C234.458 31.0167 234.075 31.55 233.775 32.15C233.508 32.75 233.375 33.4 233.375 34.1V50H229.875C229.108 50 228.425 50 227.825 50C227.225 50 226.708 50 226.275 50Z" fill="#3E3E3E"/>
<path d="M12.9347 55.3618C12.9347 52.4748 12.9347 46.4461 12.9347 45.4272C12.9347 44.1535 12.6799 43.3893 11.1515 41.8609C9.62312 40.3325 3 34.7283 3 26.8315C3 18.9347 6.82103 13.0758 11.661 9.50947C13.9536 8.23579 16.7557 9.76421 16.7557 12.0568C16.7557 14.3494 16.7557 21.482 16.7557 23.0104C16.7557 24.5389 17.2652 25.3031 19.0483 25.3031C20.8315 25.3031 25.9262 25.3031 27.1999 25.3031C28.4735 25.3031 29.2377 24.2841 29.2377 23.0104C29.2377 21.7368 29.2377 13.3305 29.2377 12.0568C29.2377 10.2737 30.5114 9 33.0588 9C36.0013 9 43.2482 16.3873 42.9935 25.3031C42.9935 33.1999 39.9366 37.0209 34.3325 41.8609C33.3135 43.1345 33.0588 43.8987 33.0588 45.4272C33.0588 46.6499 33.0588 52.5597 33.0588 55.3618" stroke="#C93C2C" stroke-width="4.5" stroke-linecap="round"/>
<path d="M26.6904 25.3032C26.6904 27.2562 26.6904 31.4169 26.6904 32.4358C26.6904 33.4548 27.0748 33.9352 27.7094 34.7284C28.7283 36.0021 31.955 39.993 33.823 42.3705" stroke="#C93C2C" stroke-width="4"/>
</svg>
